<?xml version="1.0" encoding="iso-8859-1"?>
<!-- Uploaded to: SVG Repo, www.svgrepo.com, Generator: SVG Repo Mixer Tools -->
<svg fill="#000000" height="800px" width="800px" version="1.1" id="Capa_1" xmlns="http://www.w3.org/2000/svg" xmlns:xlink="http://www.w3.org/1999/xlink" 
	 viewBox="0 0 88.695 88.695" xml:space="preserve">
<g>
	<path d="M84.351,68.07c2.508-4.59,3.829-9.759,3.829-15.006c0-13.118-8.112-24.36-19.575-29.021
		C62.65,12.338,50.493,4.295,36.486,4.295c-19.862,0-36.021,16.159-36.021,36.021c0,6.072,1.541,12.057,4.462,17.36L0,76.059
		l18.011-4.824c5.403,3.236,11.549,4.975,17.862,5.082c5.558,5.019,12.913,8.083,20.973,8.083c5.64,0,11.142-1.512,15.971-4.379
		l15.878,4.254L84.351,68.07z M18.655,66.921L5.657,70.402l3.561-13.285l-0.419-0.72c-2.835-4.873-4.334-10.434-4.334-16.082
		c0-17.656,14.365-32.021,32.021-32.021s32.021,14.364,32.021,32.021S54.142,72.337,36.486,72.337
		c-6.066,0-11.976-1.711-17.091-4.948L18.655,66.921z M83.037,78.618l-10.861-2.91l-0.74,0.468C67.07,78.94,62.025,80.4,56.847,80.4
		c-5.511,0-10.633-1.656-14.93-4.473c17.294-2.626,30.59-17.595,30.59-35.611c0-3.712-0.565-7.294-1.612-10.667
		c7.947,4.786,13.286,13.48,13.286,23.415c0,4.823-1.28,9.57-3.701,13.728l-0.419,0.72L83.037,78.618z"/>
</g>
</svg>